<?xml version="1.0" encoding="utf-8"?>
<!-- Generator: Adobe Illustrator 16.0.0, SVG Export Plug-In . SVG Version: 6.00 Build 0)  -->
<!DOCTYPE svg PUBLIC "-//W3C//DTD SVG 1.1//EN" "http://www.w3.org/Graphics/SVG/1.1/DTD/svg11.dtd">
<svg version="1.1" id="Layer_1" xmlns="http://www.w3.org/2000/svg" xmlns:xlink="http://www.w3.org/1999/xlink" x="0px" y="0px"
	 width="36.11px" height="44.412px" viewBox="0 0 36.11 44.412" enable-background="new 0 0 36.11 44.412" xml:space="preserve">
<path fill="#FFFFFF" d="M7.098,41.317c-0.88,3.109,3.945,4.427,4.821,1.329c1.331-4.702,3.795-8.849,6.746-12.741
	c2.853,3.623,5.734,7.225,8.576,10.844c1.989,2.535,5.502-1.029,3.535-3.535c-2.953-3.762-5.947-7.503-8.9-11.273
	c4.66-5.432,9.894-10.536,13.791-16.197c1.834-2.664-2.502-5.16-4.317-2.523c-3.604,5.234-8.187,9.947-12.472,14.848
	C13.754,15.387,8.852,8.547,4.667,1.22C3.069-1.579-1.251,0.939,0.35,3.744c4.468,7.825,9.746,15.108,15.249,22.23
	C11.904,30.592,8.738,35.522,7.098,41.317z"/>
</svg>
