<?xml version="1.0" encoding="utf-8"?>
<!-- Generator: Adobe Illustrator 16.0.0, SVG Export Plug-In . SVG Version: 6.00 Build 0)  -->
<!DOCTYPE svg PUBLIC "-//W3C//DTD SVG 1.1//EN" "http://www.w3.org/Graphics/SVG/1.1/DTD/svg11.dtd">
<svg version="1.1" id="Layer_1" xmlns="http://www.w3.org/2000/svg" xmlns:xlink="http://www.w3.org/1999/xlink" x="0px" y="0px"
	 width="47.848px" height="48.888px" viewBox="0 0 47.848 48.888" enable-background="new 0 0 47.848 48.888" xml:space="preserve">
<path fill="#FFFFFF" d="M47.407,9.598c-1.246-5.75-6.25-9.422-11.969-7.939c-4.086,1.061-7.527,4.512-9.759,8.361
	C19.569,1.877,6.409-5.767,1.411,6.19c-6.207,14.851,9.407,29.945,20.828,39.201c0.154,0.174,0.34,0.32,0.549,0.443
	c1.005,0.807,1.973,1.568,2.886,2.277c1.061,1.082,3.271,1.133,4.181-0.492c0.213-0.295,0.348-0.625,0.404-0.965
	C34.995,34.031,50.668,24.648,47.407,9.598z M13.786,30.619c0.271-0.277,0.491-0.638,0.61-1.113
	c1.437-5.705,4.956-10.475,8.401-15.146c0.079,0.16,0.151,0.318,0.226,0.479c-3.246,5.387-6.115,11.242-7.897,17.291
	C14.669,31.632,14.224,31.128,13.786,30.619z M6.573,19.166c0.084-0.121,0.167-0.247,0.237-0.397
	c2.067-4.394,4.548-8.652,7.942-12.159c0.055-0.057,0.091-0.117,0.14-0.176c0.086,0.041,0.173,0.082,0.259,0.127
	c-3.384,3.744-6.232,8.332-8.408,13.021C6.686,19.443,6.629,19.307,6.573,19.166z M9.739,25.244
	c2.065-5.502,5.425-11.424,9.474-15.738c0.238,0.232,0.469,0.471,0.693,0.715c-0.272,0.17-0.527,0.393-0.747,0.693
	c-3.475,4.729-7.019,9.51-8.926,15.078C10.066,25.744,9.901,25.494,9.739,25.244z M19.22,36.219
	c1.534-6.499,4.46-12.735,7.892-18.489c0.576-0.27,1.055-0.783,1.283-1.558c0.596-2.027,1.789-4.32,3.395-6.201
	c-4.025,8.902-8.049,17.805-12.072,26.709C19.551,36.528,19.385,36.374,19.22,36.219z M41.073,7.084
	c-4.416,8.83-9.682,17.224-14.259,25.968c4.048-8.955,8.097-17.912,12.144-26.869C39.842,6.25,40.536,6.575,41.073,7.084z
	 M31.28,35.129c3.545-6.764,7.553-13.305,11.219-20.01c-0.27,2.056-0.787,3.947-1.242,4.986
	C38.836,25.637,34.838,30.262,31.28,35.129z M8.981,5.624C7.573,7.368,6.308,9.225,5.169,11.16C5.515,8.577,6.758,6.375,8.981,5.624
	z"/>
</svg>
